<svg width="373" height="271" viewBox="0 0 373 271" fill="none" xmlns="http://www.w3.org/2000/svg">
  <path fill-rule="evenodd" clip-rule="evenodd" d="M261 9.636A45.9 45.9 0 0 1 276.265 7a3.5 3.5 0 1 0 0-7 52.9 52.9 0 0 0-17.61 3.04c-1.762.627-3.493 1.49-4.757 3.094-1.254 1.592-1.684 3.456-1.908 5.224-.455 3.591-.762 10.369-1.005 15.743l-.066 1.447c-.07 1.531-.134 2.884-.195 3.975a3.5 3.5 0 0 0-.512 2.07c.033.49.068.918.11 1.26.02.165.049.37.092.578.022.103.057.258.113.436.04.125.165.51.444.93.152.229 1.231 1.793 3.333 1.553 1.76-.2 2.538-1.545 2.636-1.713l.006-.01c.324-.551.432-1.101.449-1.185l.002-.01a10 10 0 0 0 .144-1.033c.125-1.289.244-3.754.371-6.532l.027-.59.034-.757.064-1.405c2.101-.173 4.099-.62 5.841-1.01l.166-.037c2.387-.533 4.337-.953 6.257-.953a3.5 3.5 0 1 0 0-7c-2.765 0-5.418.593-7.648 1.092l-.135.03c-1.525.34-2.865.634-4.126.802.156-2.717.334-5.159.542-6.8.174-1.368.398-1.691.463-1.773.054-.07.307-.37 1.603-.83m-13.966 1.796a3.5 3.5 0 0 1-2.817 4.07l-1.876.34-.001.001c-1.936.353-3.886.709-5.844 1.056.902 2.546 1.316 5.163 1.613 7.24l.045.318c.55 3.843 1.137 7.944.614 12.386a3.5 3.5 0 1 1-6.952-.818c.413-3.51-.053-6.81-.637-10.895-.383-2.68-.852-5.123-1.739-7.035l-.082.013c-1.328.21-2.524.472-3.819.755-.566.124-1.15.251-1.772.38-.685.26-1.41.37-1.812.4a4 4 0 0 1-.329.013h-.008c-.075 0-.431 0-.854-.102l-.012-.003a3.5 3.5 0 0 1-2.155-5.234 3.5 3.5 0 0 1 1.164-1.164l.009-.005c.21-.128.389-.207.478-.244.436-.184.951-.284 1.176-.328l.027-.006c.685-.134 1.454-.3 2.263-.476 1.471-.319 3.075-.666 4.547-.9 4.258-.676 8.528-1.454 12.818-2.236l1.886-.344a3.5 3.5 0 0 1 4.069 2.817m-24.449 8.053.018-.004zm-5.851-5.944a3.5 3.5 0 1 0-6.968.664c.628 6.592 1.094 12.883.381 19.092q-.034.312-.071.675v.002c-.103 1.017-.233 2.298-.553 3.471q-.024.09-.049.174c-.46-.315-.981-.758-1.547-1.314-.992-.974-1.864-2.026-2.665-2.992q-.388-.47-.756-.905c-.528-.62-.848-1.237-1.353-2.213h-.001v-.001h-.001a83 83 0 0 0-.582-1.11 23 23 0 0 0-.562-1.158 8.6 8.6 0 0 0-.685-1.125l-.009-.012c-.097-.13-.512-.687-1.211-1.086a3.58 3.58 0 0 0-2.602-.378c-1.36.323-2.069 1.29-2.363 1.88-.394.786-.611 1.754-.751 2.451-.16.807-.307 1.754-.446 2.734q-.152 1.085-.302 2.215v.002c-.184 1.375-.373 2.79-.599 4.207-.253 1.593-.523 2.983-.814 4.069q-.356-.358-.777-.865c-.767-.926-1.386-1.838-2.024-2.778h-.001v-.001c-.327-.482-.658-.97-1.017-1.471-1.298-1.813-2.68-3.738-4.149-5.57-.067-.082-.15-.19-.247-.314-.327-.42-.804-1.033-1.264-1.527-.668-.718-1.612-1.557-2.925-2.092a3.5 3.5 0 0 0-2.641 6.483c.018.007.15.064.443.379.146.157.305.347.504.6.054.067.133.168.221.281.148.19.322.412.448.57 1.332 1.661 2.609 3.435 3.918 5.264.181.253.41.59.675.978.713 1.049 1.685 2.477 2.669 3.664 1.327 1.602 3.399 3.721 6.189 4.355 2.06.468 3.66-.533 4.561-1.525.804-.887 1.304-1.99 1.636-2.889.687-1.86 1.153-4.276 1.508-6.512.09-.565.176-1.143.259-1.722.773.926 1.767 2.083 2.81 3.108.827.812 1.793 1.654 2.855 2.332 1.038.662 2.382 1.305 3.928 1.434 2.272.19 3.904-1.016 4.848-2.25.862-1.128 1.338-2.475 1.626-3.532.494-1.816.693-3.865.785-4.808q.023-.243.039-.38c.805-7.013.26-13.958-.368-20.554m64.484 16.462a3.5 3.5 0 1 0-4.2 5.6l1.037.778a3.5 3.5 0 0 0 4.2-5.6zm13.44 1.235a3.5 3.5 0 0 1 4.696-1.565l.519.26a3.5 3.5 0 1 1-3.131 6.26l-.518-.26a3.5 3.5 0 0 1-1.566-4.695m17.83-1.024a3.5 3.5 0 1 0 0 7h.312a3.5 3.5 0 1 0 0-7z" fill="#000"/>
  <path d="M109.399 146.108c-7.76 24.09 1.035 45.381 21.61 60.153 14.73 10.576 34.478 15.915 52.445 16.492 22.931.736 46.697-5.844 64.008-21.483 14.401-13.011 24.143-30.839 21.737-50.613-5.483-45.053-58.895-72.948-100.53-68.115-19.559 2.27-43.169 10.252-55.036 27.17-11.532 16.438-9.273 36.59-5.94 55.162" stroke="#000" stroke-width="7" stroke-linecap="round"/>
  <path fill-rule="evenodd" clip-rule="evenodd" d="M93.439 36.597a3.5 3.5 0 0 1 4.945-.219c5.416 4.959 9.272 11.047 12.491 17.235 1.611 3.096 3.087 6.268 4.514 9.36l.363.785c1.309 2.839 2.582 5.599 3.926 8.27a3.499 3.499 0 1 1-6.252 3.148c-1.402-2.784-2.725-5.653-4.024-8.471l-.368-.799c-1.429-3.096-2.843-6.13-4.369-9.063-3.054-5.87-6.46-11.139-11.008-15.301a3.5 3.5 0 0 1-.218-4.945M64.755 85.18a3.5 3.5 0 0 1 4.326-2.407c5.267 1.501 10.065 3.917 14.555 6.33q1.321.712 2.603 1.412c3.597 1.959 7.011 3.817 10.601 5.317a3.5 3.5 0 1 1-2.698 6.459c-3.956-1.653-7.762-3.727-11.38-5.698q-1.235-.675-2.44-1.324c-4.43-2.38-8.666-4.483-13.16-5.764a3.5 3.5 0 0 1-2.407-4.325m82.015-52.36a3.501 3.501 0 0 0-6.476 2.659c3.97 9.665 6.489 15.968 6.579 25.738a3.5 3.5 0 1 0 6.999-.064c-.103-11.245-3.127-18.655-7.102-28.334m48.163 83.925c1.909-1.041 3.973-1.714 5.735-1.743 1.626-.027 2.869.468 3.827 1.73 2.542 3.351 3.591 7.375 4.827 12.114.234.897.475 1.819.733 2.767a3.5 3.5 0 0 0 6.754-1.841c-.208-.76-.412-1.558-.624-2.383-1.208-4.711-2.646-10.317-6.114-14.887-2.558-3.373-6.117-4.555-9.519-4.499-3.267.054-6.458 1.226-8.971 2.597-3.707 2.022-6.085 5.237-7.822 8.353-.873 1.566-1.624 3.183-2.303 4.692l-.515 1.152v.001a99 99 0 0 1-1.419 3.094c-.894 1.832-2.191 4.182-3.743 6.083-1.655 2.026-3.048 2.864-4.009 2.96-4.176.418-6.572-2.052-10.582-6.716-2.085-2.426-4.778-4.103-7.843-4.601-3.087-.501-6.226.249-9.064 2.105-6.303 4.121-10.151 10.412-9.113 18.601.298 2.348 1.367 4.808 2.954 6.75 1.581 1.936 4.007 3.736 7.127 3.901a3.5 3.5 0 0 0 .368-6.991c-.515-.027-1.273-.357-2.074-1.338-.795-.973-1.305-2.216-1.43-3.202-.64-5.047 1.497-8.919 5.999-11.862 1.551-1.015 2.945-1.243 4.111-1.054 1.189.193 2.471.875 3.657 2.255l.155.18.166.193c3.525 4.11 8.191 9.552 16.265 8.745 3.845-.385 6.786-3.113 8.734-5.498 2.051-2.511 3.625-5.417 4.613-7.442a109 109 0 0 0 1.561-3.402h.001q.236-.532.466-1.044c.662-1.472 1.312-2.862 2.032-4.154 1.449-2.599 3.021-4.504 5.06-5.616m-39.384 28.52a3.5 3.5 0 1 0-5.042 4.855c1.248 1.296 2.189 3.007 3.23 5.204q.257.546.533 1.141c.847 1.829 1.832 3.956 3.08 5.828a3.5 3.5 0 1 0 5.824-3.883c-.919-1.379-1.624-2.896-2.459-4.691l-.001-.001-.001-.003a209 209 0 0 0-.65-1.388c-1.073-2.264-2.415-4.883-4.514-7.062m43.745-15.72a3.5 3.5 0 0 1 4.434 2.201c.735 2.184 1.241 4.507 1.699 6.604v.003q.162.744.319 1.444c.577 2.561 1.172 4.765 2.136 6.692a3.5 3.5 0 0 1-6.261 3.13c-1.369-2.738-2.111-5.653-2.704-8.283q-.193-.86-.369-1.671c-.451-2.059-.854-3.903-1.455-5.686a3.5 3.5 0 0 1 2.201-4.434m-.56 47.964c-.939-2.597-2.963-5.885-5.587-8.271-2.544-2.313-6.685-4.61-11.207-2.546-4.394 2.006-5.758 6.366-5.907 9.906-.041.974.001 1.963.115 2.939a3.5 3.5 0 0 0-.558 3.708c1.258 2.847 3.39 5.767 6.035 7.993 2.625 2.21 6.083 4 9.96 3.912 2.538-.058 4.578-1.159 5.964-2.91 1.277-1.613 1.847-3.573 2.095-5.287.492-3.399-.092-7.184-.91-9.444m-14.321 5.611c.273.491.415 1.019.438 1.544.404.431.832.841 1.282 1.219 1.84 1.549 3.693 2.305 5.293 2.268.43-.009.526-.118.635-.256.218-.275.501-.881.655-1.945.313-2.159-.103-4.782-.565-6.06-.577-1.596-1.986-3.903-3.713-5.472-1.805-1.642-2.93-1.659-3.591-1.358-.944.431-1.723 1.522-1.82 3.833-.097 2.283.577 4.77 1.386 6.227m163.266-41.532c-1.327-2.17-3.174-3.569-5.339-4.199-2.064-.601-4.141-.425-5.924-.002-3.498.83-6.861 2.866-8.874 4.147a3.5 3.5 0 1 0 3.758 5.906c2.013-1.281 4.496-2.712 6.732-3.242 1.083-.257 1.846-.236 2.351-.088.406.118.859.37 1.323 1.129 2.241 3.667 1.503 8.361-1.368 10.313a3.5 3.5 0 1 0 3.936 5.789 13 13 0 0 0 2.404-2.109q.396.053.808.013c5.956-.596 10.749-.733 15.327 1.556 1.084.542 1.809 1.11 2.147 1.567.143.193.163.294.166.314.001.006.022.099-.072.342-.144.37-.511.828-1.511 1.323-1.027.509-2.294.849-3.724 1.199-.687.167-1.337.345-1.974.519-1.254.342-2.455.67-3.773.88a12 12 0 0 1-1.659.158 3.5 3.5 0 0 0-1.785-.335 3.5 3.5 0 0 0-3.766 5.901 8.9 8.9 0 0 0 3.114 1.221c1.103.821 2.436 1.944 3.374 3.119.633.793.874 1.348.931 1.636l.01.045q.008.029.006.042c-.003.011-.012.022-.031.044l-.033.039c-.639.766-2.054 1.269-5.097.204-2.834-.993-5.669-2.94-7.088-4.305a3.5 3.5 0 0 0-5.916 2.788 3.5 3.5 0 0 0 .359 1.838c.835 1.67.627 4.342-.764 6.506-1.314 2.044-3.062 2.79-4.911 2.217-.935-.291-1.744-.994-2.412-2.496-.698-1.569-1.098-3.735-1.214-6.29-.205-4.518.508-9.452 1.125-12.547l.713-2.49a3.5 3.5 0 1 0-6.731-1.923l-.269.94a3.5 3.5 0 0 0-.319.873q-.096.432-.2.937c-3.548 12.343-7.245 24.557-12.112 36.237-1.909 4.582-4.058 9.328-6.865 13.359-2.796 4.015-6.089 7.093-10.192 8.632-9.242 3.465-16.378 1.565-22.401-2.997-6.268-4.746-11.378-12.437-15.834-20.58a3.5 3.5 0 1 0-6.141 3.36c4.534 8.286 10.228 17.106 17.749 22.801 7.764 5.88 17.4 8.352 29.084 3.97 5.888-2.208 10.204-6.481 13.48-11.186 3.264-4.688 5.65-10.029 7.582-14.667 2.195-5.268 4.154-10.627 5.961-16.024q.091.222.187.439c1.23 2.765 3.338 5.283 6.734 6.337 5.714 1.773 10.401-1.27 12.874-5.116a15.2 15.2 0 0 0 2.118-5.337c.997.507 2.036.962 3.09 1.331 3.669 1.284 9.162 2.02 12.787-2.33 1.547-1.856 1.939-4.012 1.534-6.029-.335-1.67-1.184-3.127-2.058-4.283.373-.099.729-.196 1.059-.285v-.001c.52-.141.977-.265 1.336-.353 1.371-.335 3.356-.827 5.17-1.725 1.841-.913 3.908-2.439 4.927-5.059 1.104-2.839.44-5.423-.99-7.356-1.291-1.744-3.146-2.916-4.644-3.665-5.437-2.718-10.928-2.894-16.072-2.531.47-3.643-.38-7.453-2.193-10.421M14.061 211.335c.294-.294.488-.401.566-.436a.3.3 0 0 1 .065-.024l.014-.001c.03 0 .33.025.97.486 1.091.789 2.056 1.958 3.142 3.274.345.418.702.851 1.08 1.292a3.5 3.5 0 0 0 5.314-4.556 48 48 0 0 1-.636-.769c-1.12-1.369-2.888-3.532-4.8-4.915-1.247-.9-2.94-1.783-4.972-1.811-2.16-.031-4.092.909-5.693 2.51-3.673 3.673-4.992 7.795-4.633 12.017.209 2.448.973 4.829 1.982 7.074-1.716 1.385-3.645 3.321-4.94 5.634-1.51 2.692-2.358 6.34-.291 9.988 2.232 3.94 6.147 5.237 9.421 5.674.628.084 1.278.14 1.931.176a16 16 0 0 0-1.473 4.258 16.4 16.4 0 0 0-.09 5.5c.3 1.872 1.064 4.22 2.96 5.885 2.056 1.805 4.486 2.071 6.622 1.533 1.95-.491 3.683-1.638 5.036-2.741 1.532-1.248 2.932-2.741 4.027-4.023 1.213 1.852 2.65 3.329 4.354 4.28 2.168 1.209 4.487 1.409 6.686.827 4.074-1.078 7.44-4.722 9.876-8.549 1.945-3.057 3.166-6.243 3.753-9.491 3.223 5.071 6.88 10.341 11.083 14.758 7.032 7.389 16.122 12.955 27.908 11.202 10.458-1.556 17.192-10.055 21.62-18.86 4.358-8.668 6.986-18.636 8.778-25.435l.154-.582a3.5 3.5 0 1 0-6.768-1.786l-.101.383c-1.823 6.907-4.293 16.272-8.317 24.275-4.156 8.265-9.45 14.048-16.396 15.081-8.648 1.286-15.607-2.59-21.807-9.104-5.392-5.665-9.808-12.897-13.918-19.627l-.002-.003c-.69-1.129-1.37-2.245-2.046-3.336a3.5 3.5 0 0 0-1.412-1.289 3.5 3.5 0 0 0-6.476 2.593c1.915 6.224 1.44 12.121-1.958 17.463-2.184 3.431-4.32 5.159-5.761 5.54-.558.147-1 .098-1.485-.173-.574-.32-1.442-1.092-2.412-2.838a3.5 3.5 0 0 0-3.27-1.794 3.5 3.5 0 0 0-5.7-.203c-.94 1.224-2.808 3.615-4.833 5.265-1.028.839-1.82 1.253-2.323 1.379-.258.065-.27.037-.283.011q-.003-.01-.01-.016c-.148-.13-.487-.61-.666-1.727a9.5 9.5 0 0 1 .052-3.081c.62-3.232 3-5.715 6.263-8.978a3.5 3.5 0 0 0-4.95-4.95l-.342.342-.005.005c-.32.32-.654.652-.993.997q-.54.013-1.066.028c-1.843.051-3.568.1-5.314-.133-2.37-.316-3.609-1.043-4.257-2.187-.454-.801-.471-1.727.307-3.115.681-1.216 1.809-2.425 2.997-3.417a3.5 3.5 0 0 0 3.99-5.124c-1.81-3.112-2.958-5.803-3.16-8.183-.182-2.135.372-4.237 2.608-6.473" fill="#000"/>
</svg>

