<svg width="373" height="271" viewBox="0 0 373 271" fill="none" xmlns="http://www.w3.org/2000/svg">
<path fill-rule="evenodd" clip-rule="evenodd" d="M261 9.63588C265.869 7.90452 271.109 7 276.265 7C278.198 7 279.765 5.433 279.765 3.5C279.765 1.567 278.198 0 276.265 0C270.308 0 264.276 1.04185 258.655 3.04038C256.893 3.6668 255.162 4.52921 253.898 6.1342C252.644 7.72644 252.214 9.59023 251.99 11.3582C251.535 14.9494 251.228 21.7267 250.985 27.1014V27.1015C250.963 27.5966 250.941 28.0798 250.919 28.5476C250.849 30.0791 250.785 31.4322 250.724 32.523C250.355 33.1215 250.162 33.8368 250.212 34.5921C250.245 35.0836 250.28 35.5112 250.322 35.8527C250.342 36.0179 250.371 36.2229 250.414 36.431C250.436 36.534 250.471 36.6892 250.527 36.8667C250.567 36.9916 250.692 37.3769 250.971 37.7962C251.123 38.0255 252.202 39.5903 254.304 39.3502C256.064 39.1492 256.842 37.8051 256.94 37.6372L256.946 37.6272C257.27 37.0756 257.378 36.5258 257.395 36.4416L257.397 36.4327C257.469 36.0905 257.512 35.701 257.541 35.3994C257.666 34.1102 257.785 31.6449 257.912 28.8673L257.939 28.2772L257.973 27.5201C257.994 27.0581 258.016 26.589 258.037 26.1153C260.138 25.9417 262.136 25.4949 263.878 25.1054L264.044 25.0683C266.431 24.5353 268.381 24.1152 270.301 24.1152C272.234 24.1152 273.801 22.5482 273.801 20.6152C273.801 18.6822 272.234 17.1152 270.301 17.1152C267.536 17.1152 264.883 17.7083 262.653 18.2066L262.518 18.2367C260.993 18.5775 259.653 18.8712 258.392 19.0394C258.548 16.3216 258.726 13.8803 258.934 12.2384C259.108 10.8707 259.332 10.5479 259.397 10.4657C259.451 10.3963 259.704 10.0965 261 9.63588ZM247.034 11.4315C247.38 13.3333 246.119 15.1554 244.217 15.5012C243.593 15.6146 242.968 15.7286 242.341 15.8429L242.34 15.843L242.34 15.8431C240.404 16.1961 238.454 16.5517 236.496 16.8991C237.398 19.4445 237.812 22.0619 238.109 24.1397L238.154 24.4571L238.154 24.4571C238.704 28.3002 239.291 32.4011 238.768 36.8428C238.543 38.7626 236.803 40.1357 234.883 39.9099C232.964 39.684 231.591 37.9447 231.816 36.0249C232.229 32.5152 231.763 29.215 231.179 25.1297C230.796 22.4493 230.327 20.0066 229.44 18.0945L229.358 18.1076C228.03 18.3183 226.834 18.5799 225.539 18.8629L225.539 18.863C224.973 18.9867 224.389 19.1144 223.767 19.2438C223.082 19.5021 222.357 19.6131 221.955 19.6434C221.877 19.6492 221.761 19.6562 221.626 19.6561L221.618 19.6561C221.543 19.6562 221.187 19.6569 220.764 19.5542L220.752 19.5514C220.608 19.517 219.823 19.3301 219.124 18.6409C218.677 18.2001 218.191 17.4725 218.097 16.4776C218.005 15.515 218.325 14.7607 218.597 14.3173C219.043 13.5876 219.639 13.2269 219.761 13.1532L219.77 13.1478C219.98 13.0204 220.159 12.9412 220.248 12.9036C220.684 12.7202 221.199 12.6196 221.424 12.5758L221.451 12.5705C222.136 12.4361 222.905 12.2695 223.714 12.0943L223.714 12.0943C225.185 11.7753 226.789 11.4278 228.261 11.1941C232.519 10.5181 236.789 9.73966 241.079 8.95754C241.707 8.84302 242.336 8.72843 242.965 8.61407C244.867 8.26829 246.689 9.5297 247.034 11.4315ZM221.228 12.7217C221.261 12.7077 221.287 12.6969 221.309 12.6888C221.281 12.6994 221.254 12.7104 221.228 12.7217ZM222.585 19.4852C222.585 19.4852 222.591 19.4837 222.603 19.4809C222.592 19.4838 222.586 19.4852 222.585 19.4852ZM216.734 13.541C216.551 11.6167 214.843 10.2054 212.918 10.3886C210.994 10.5719 209.583 12.2804 209.766 14.2047C210.394 20.7969 210.86 27.0877 210.147 33.2975C210.124 33.504 210.101 33.7306 210.076 33.9723L210.076 33.9736L210.076 33.9743L210.076 33.9747L210.076 33.9749L210.076 33.9749C209.973 34.9905 209.843 36.2722 209.523 37.4454C209.507 37.5055 209.491 37.5634 209.474 37.6193C209.014 37.3038 208.493 36.8613 207.927 36.3053C206.935 35.3308 206.063 34.279 205.262 33.3135C205.003 33.0009 204.752 32.6973 204.506 32.4083C203.978 31.7876 203.658 31.1708 203.153 30.1955L203.152 30.1952L203.152 30.1949L203.152 30.194L203.151 30.1934C202.983 29.8678 202.793 29.5023 202.569 29.0834C202.576 29.0961 202.55 29.0392 202.436 28.7959C202.328 28.5658 202.174 28.2449 202.007 27.9252C201.866 27.6561 201.619 27.1984 201.322 26.8012L201.313 26.789C201.216 26.6598 200.801 26.1021 200.102 25.7031C199.71 25.4793 198.743 25.0292 197.5 25.325C196.14 25.6483 195.431 26.6148 195.137 27.2042C194.743 27.9911 194.526 28.9591 194.386 29.6564C194.226 30.4627 194.079 31.4098 193.94 32.3897C193.838 33.1122 193.739 33.8528 193.638 34.6053L193.638 34.6064L193.638 34.6071L193.638 34.6072L193.638 34.6075C193.454 35.9818 193.265 37.3962 193.039 38.8142C192.786 40.4069 192.516 41.7967 192.225 42.883C191.988 42.6431 191.729 42.3573 191.448 42.0182C190.681 41.0923 190.062 40.1796 189.424 39.2397L189.424 39.2394L189.423 39.2391L189.423 39.2388C189.096 38.7573 188.765 38.2687 188.406 37.7676C187.108 35.9546 185.726 34.0304 184.257 32.1982C184.19 32.1157 184.107 32.0082 184.01 31.8839L184.01 31.8834L184.01 31.8834L184.01 31.8833C183.683 31.4632 183.206 30.8505 182.746 30.3566C182.078 29.6389 181.134 28.8002 179.821 28.2654C178.031 27.5361 175.989 28.3961 175.26 30.1862C174.53 31.9763 175.39 34.0187 177.18 34.7481C177.198 34.7552 177.33 34.812 177.623 35.1269C177.769 35.2839 177.928 35.4745 178.127 35.7261C178.181 35.7935 178.26 35.8948 178.348 36.0084C178.496 36.1973 178.67 36.4202 178.796 36.578C180.128 38.2391 181.405 40.0129 182.714 41.8424C182.895 42.0951 183.124 42.4314 183.389 42.82C184.102 43.8686 185.074 45.2971 186.058 46.4841C187.385 48.0863 189.457 50.205 192.247 50.8392C194.307 51.3072 195.907 50.3058 196.808 49.3136C197.612 48.427 198.112 47.3241 198.444 46.4253C199.131 44.5642 199.597 42.1493 199.952 39.9131C200.042 39.3483 200.128 38.7696 200.211 38.1907C200.984 39.1166 201.978 40.2737 203.021 41.2988C203.848 42.1108 204.814 42.9534 205.876 43.6308C206.914 44.2934 208.258 44.9361 209.804 45.065C212.076 45.2543 213.708 44.0494 214.652 42.8142C215.514 41.6866 215.99 40.34 216.278 39.2835C216.772 37.4673 216.971 35.4184 217.063 34.4747L217.063 34.4745C217.079 34.314 217.091 34.1855 217.102 34.0956C217.907 27.0821 217.362 20.1369 216.734 13.541ZM281.218 30.0034C279.671 28.8436 277.478 29.157 276.318 30.7034C275.158 32.2498 275.471 34.4436 277.018 35.6034L278.055 36.3813C279.601 37.5411 281.795 37.2277 282.955 35.6813C284.115 34.1349 283.801 31.9411 282.255 30.7813L281.218 30.0034ZM294.658 31.2381C295.523 29.5092 297.625 28.8084 299.354 29.6729L299.873 29.9322C301.602 30.7967 302.303 32.899 301.438 34.6279C300.574 36.3569 298.471 37.0577 296.742 36.1932L296.224 35.9339C294.495 35.0694 293.794 32.9671 294.658 31.2381ZM312.488 30.2139C310.555 30.2139 308.988 31.7809 308.988 33.7139C308.988 35.6469 310.555 37.2139 312.488 37.2139H312.8C314.733 37.2139 316.3 35.6469 316.3 33.7139C316.3 31.7809 314.733 30.2139 312.8 30.2139H312.488Z" fill="black"/>
<path d="M109.399 146.108C101.639 170.198 110.434 191.489 131.009 206.261C145.739 216.837 165.487 222.176 183.454 222.753C206.385 223.489 230.151 216.909 247.462 201.27C261.863 188.259 271.605 170.431 269.199 150.657C263.716 105.604 210.304 77.709 168.669 82.5417C149.11 84.8118 125.5 92.7944 113.633 109.712C102.101 126.15 104.36 146.302 107.693 164.874" stroke="black" stroke-width="7" stroke-linecap="round"/>
<path fill-rule="evenodd" clip-rule="evenodd" d="M93.4388 36.5968C94.7439 35.171 96.9578 35.0731 98.3837 36.3783C103.8 41.3365 107.656 47.4248 110.875 53.6128C112.486 56.7095 113.962 59.8808 115.389 62.9728L115.752 63.7583C117.061 66.5969 118.334 69.3569 119.678 72.0275C120.548 73.7539 119.853 75.8583 118.126 76.7276C116.4 77.597 114.296 76.9022 113.426 75.1758C112.024 72.3917 110.701 69.5229 109.402 66.7048L109.034 65.906C107.605 62.8096 106.191 59.776 104.665 56.8434C101.611 50.9726 98.2045 45.7041 93.6573 41.5418C92.2314 40.2366 92.1336 38.0227 93.4388 36.5968ZM64.7553 85.1802C65.285 83.3212 67.2215 82.2436 69.0805 82.7733C74.3479 84.2742 79.1457 86.6899 83.6362 89.1037C84.5174 89.5774 85.3835 90.049 86.2393 90.5149L86.2395 90.515C89.8365 92.4735 93.2504 94.3323 96.8404 95.8319C98.6241 96.5769 99.466 98.6268 98.721 100.41C97.9759 102.194 95.926 103.036 94.1424 102.291C90.1861 100.638 86.38 98.5645 82.7619 96.593L82.7619 96.593L82.7616 96.5928C81.9385 96.1443 81.1251 95.7011 80.3219 95.2694C75.8928 92.8886 71.6558 90.7857 67.1622 89.5053C65.3032 88.9756 64.2256 87.0392 64.7553 85.1802ZM146.77 32.8193C146.035 31.0313 143.99 30.1771 142.202 30.9115C140.414 31.6459 139.56 33.6908 140.294 35.4788C144.264 45.1437 146.783 51.4474 146.873 61.2171C146.891 63.1501 148.472 64.7026 150.405 64.6847C152.338 64.6669 153.89 63.0856 153.872 61.1526C153.769 49.9082 150.745 42.4978 146.77 32.8193Z" fill="black"/>
<path fill-rule="evenodd" clip-rule="evenodd" d="M194.933 116.744C196.842 115.703 198.906 115.03 200.668 115.001C202.294 114.974 203.537 115.469 204.495 116.731C207.037 120.082 208.086 124.106 209.322 128.845C209.556 129.742 209.797 130.664 210.055 131.612C210.564 133.477 212.488 134.577 214.353 134.068C216.218 133.559 217.317 131.635 216.809 129.771C216.601 129.011 216.397 128.213 216.185 127.388C214.977 122.677 213.539 117.071 210.071 112.501C207.513 109.128 203.954 107.946 200.552 108.002C197.285 108.056 194.094 109.228 191.581 110.599C187.874 112.621 185.496 115.836 183.759 118.952C182.886 120.518 182.135 122.135 181.456 123.644C181.279 124.039 181.108 124.422 180.941 124.796L180.941 124.797L180.941 124.797L180.941 124.797C180.452 125.896 179.999 126.912 179.522 127.891C178.628 129.723 177.331 132.073 175.779 133.974C174.124 136 172.731 136.838 171.77 136.934C167.594 137.352 165.198 134.882 161.188 130.218C159.103 127.792 156.41 126.115 153.345 125.617C150.258 125.116 147.119 125.866 144.281 127.722C137.978 131.843 134.13 138.134 135.168 146.323C135.466 148.671 136.535 151.131 138.122 153.073C139.703 155.009 142.129 156.809 145.249 156.974C147.179 157.075 148.826 155.593 148.928 153.662C149.029 151.732 147.547 150.085 145.617 149.983C145.102 149.956 144.344 149.626 143.543 148.645C142.748 147.672 142.238 146.429 142.113 145.443C141.473 140.396 143.61 136.524 148.112 133.581C149.663 132.566 151.057 132.338 152.223 132.527C153.412 132.72 154.694 133.402 155.88 134.782L156.035 134.962L156.201 135.155C159.726 139.265 164.392 144.707 172.466 143.9C176.311 143.515 179.252 140.787 181.2 138.402C183.251 135.891 184.825 132.985 185.813 130.96C186.349 129.861 186.872 128.686 187.374 127.558L187.375 127.558L187.375 127.558C187.532 127.204 187.688 126.854 187.841 126.514C188.503 125.042 189.153 123.652 189.873 122.36C191.322 119.761 192.894 117.856 194.933 116.744ZM155.549 145.264C154.209 143.871 151.993 143.829 150.601 145.17C149.208 146.511 149.166 148.727 150.507 150.119C151.755 151.415 152.696 153.126 153.737 155.323C153.909 155.686 154.086 156.068 154.27 156.464C155.117 158.293 156.102 160.42 157.35 162.292C158.422 163.901 160.595 164.335 162.204 163.263C163.812 162.191 164.247 160.018 163.174 158.409C162.255 157.03 161.55 155.513 160.715 153.718L160.714 153.717L160.713 153.714C160.506 153.269 160.291 152.807 160.063 152.326C158.99 150.062 157.648 147.443 155.549 145.264ZM199.294 129.544C201.126 128.928 203.111 129.913 203.728 131.745C204.463 133.929 204.969 136.252 205.427 138.349L205.427 138.352C205.535 138.848 205.641 139.33 205.746 139.796C206.323 142.357 206.918 144.561 207.882 146.488C208.746 148.217 208.045 150.319 206.316 151.183C204.587 152.048 202.485 151.347 201.621 149.618C200.252 146.88 199.51 143.965 198.917 141.335C198.788 140.762 198.666 140.205 198.548 139.664C198.097 137.605 197.694 135.761 197.093 133.978C196.477 132.146 197.462 130.161 199.294 129.544ZM198.734 177.508C197.795 174.911 195.771 171.623 193.147 169.237C190.603 166.924 186.462 164.627 181.94 166.691C177.546 168.697 176.182 173.057 176.033 176.597C175.992 177.571 176.034 178.56 176.148 179.536C175.288 180.528 175.025 181.964 175.59 183.244C176.848 186.091 178.98 189.011 181.625 191.237C184.25 193.447 187.708 195.237 191.585 195.149C194.123 195.091 196.163 193.99 197.549 192.239C198.826 190.626 199.396 188.666 199.644 186.952C200.136 183.553 199.552 179.768 198.734 177.508ZM184.413 183.119C184.686 183.61 184.828 184.138 184.851 184.663C185.255 185.094 185.683 185.504 186.133 185.882C187.973 187.431 189.826 188.187 191.426 188.15C191.856 188.141 191.952 188.032 192.061 187.894C192.279 187.619 192.562 187.013 192.716 185.949C193.029 183.79 192.613 181.167 192.151 179.889C191.574 178.293 190.165 175.986 188.438 174.417C186.633 172.775 185.508 172.758 184.847 173.059C183.903 173.49 183.124 174.581 183.027 176.892C182.93 179.175 183.604 181.662 184.413 183.119Z" fill="black"/>
<path fill-rule="evenodd" clip-rule="evenodd" d="M347.679 141.587C346.352 139.417 344.505 138.018 342.34 137.388C340.276 136.787 338.199 136.963 336.416 137.386C332.918 138.216 329.555 140.252 327.542 141.533C325.911 142.571 325.43 144.735 326.468 146.365C327.506 147.996 329.669 148.477 331.3 147.439C333.313 146.158 335.796 144.727 338.032 144.197C339.115 143.94 339.878 143.961 340.383 144.109C340.789 144.227 341.242 144.479 341.706 145.238C343.947 148.905 343.209 153.599 340.338 155.551C338.739 156.638 338.325 158.815 339.412 160.413C340.499 162.012 342.676 162.427 344.274 161.34C345.194 160.714 345.993 160.005 346.678 159.231C346.941 159.266 347.212 159.271 347.486 159.244C353.442 158.648 358.235 158.511 362.813 160.8C363.897 161.342 364.622 161.91 364.96 162.367C365.103 162.56 365.123 162.661 365.126 162.681L365.126 162.681C365.127 162.687 365.148 162.78 365.054 163.023C364.91 163.393 364.543 163.851 363.543 164.346C362.516 164.855 361.249 165.195 359.819 165.545C359.132 165.712 358.482 165.89 357.845 166.064L357.845 166.064C356.591 166.406 355.39 166.734 354.072 166.944C353.418 167.048 352.87 167.096 352.413 167.102C351.845 166.828 351.228 166.72 350.628 166.767C349 165.732 346.841 166.208 345.801 167.833C344.759 169.461 345.234 171.626 346.862 172.668C347.853 173.302 348.915 173.682 349.976 173.889C351.079 174.71 352.412 175.833 353.35 177.008C353.983 177.801 354.224 178.356 354.281 178.644C354.285 178.663 354.288 178.677 354.291 178.689C354.296 178.709 354.299 178.721 354.297 178.731C354.294 178.742 354.285 178.753 354.266 178.775C354.257 178.785 354.246 178.798 354.233 178.814C353.594 179.58 352.179 180.083 349.136 179.018C346.302 178.025 343.467 176.078 342.048 174.713C340.654 173.374 338.438 173.417 337.099 174.811C336.38 175.558 336.059 176.542 336.132 177.501C336.083 178.114 336.196 178.748 336.491 179.339C337.326 181.009 337.118 183.681 335.727 185.845C334.413 187.889 332.665 188.635 330.816 188.062C329.881 187.771 329.072 187.068 328.404 185.566C327.706 183.997 327.306 181.831 327.19 179.276C326.985 174.758 327.698 169.824 328.315 166.729C328.553 165.898 328.791 165.068 329.028 164.239C329.559 162.38 328.483 160.443 326.624 159.912C324.765 159.381 322.828 160.457 322.297 162.316L322.028 163.256C321.887 163.525 321.778 163.817 321.709 164.129C321.645 164.417 321.578 164.73 321.509 165.066C317.961 177.409 314.264 189.623 309.397 201.303C307.488 205.885 305.339 210.631 302.532 214.662C299.736 218.677 296.443 221.755 292.34 223.294C283.098 226.759 275.962 224.859 269.939 220.297C263.671 215.551 258.561 207.86 254.105 199.717C253.177 198.021 251.051 197.398 249.355 198.326C247.659 199.254 247.037 201.381 247.964 203.077C252.498 211.363 258.192 220.183 265.713 225.878C273.477 231.758 283.113 234.23 294.797 229.848C300.685 227.64 305.001 223.367 308.277 218.662C311.541 213.974 313.927 208.633 315.859 203.995C318.054 198.727 320.013 193.368 321.82 187.971C321.881 188.119 321.943 188.265 322.007 188.41C323.237 191.175 325.345 193.693 328.741 194.747C334.455 196.52 339.142 193.477 341.615 189.631C342.619 188.07 343.365 186.229 343.733 184.294C344.73 184.801 345.769 185.256 346.823 185.625C350.492 186.909 355.985 187.645 359.61 183.295C361.157 181.439 361.549 179.283 361.144 177.266C360.809 175.596 359.96 174.139 359.086 172.983C359.459 172.884 359.815 172.787 360.145 172.698L360.145 172.697L360.145 172.697C360.665 172.556 361.122 172.432 361.481 172.344C362.852 172.009 364.837 171.517 366.651 170.619C368.492 169.706 370.559 168.18 371.578 165.56C372.682 162.721 372.018 160.137 370.588 158.204C369.297 156.46 367.442 155.288 365.944 154.539C360.507 151.821 355.016 151.645 349.872 152.008C350.342 148.365 349.492 144.555 347.679 141.587Z" fill="black"/>
<path fill-rule="evenodd" clip-rule="evenodd" d="M14.061 211.335C14.3548 211.041 14.5488 210.934 14.6272 210.899C14.6666 210.881 14.6873 210.876 14.6919 210.875C14.6965 210.874 14.6997 210.874 14.7062 210.874C14.7361 210.874 15.0365 210.899 15.6758 211.36C16.7675 212.149 17.7317 213.318 18.8181 214.634L18.8182 214.634C19.163 215.052 19.5201 215.485 19.8976 215.926C21.1555 217.393 23.3651 217.563 24.8327 216.305C26.3004 215.047 26.4703 212.838 25.2124 211.37C25.0348 211.163 24.8208 210.901 24.5756 210.601L24.5756 210.601C23.4566 209.232 21.6884 207.069 19.7752 205.686C18.5292 204.786 16.8352 203.903 14.8044 203.875C12.644 203.844 10.7119 204.784 9.11127 206.385C5.4383 210.058 4.11907 214.18 4.47827 218.402C4.68658 220.85 5.45139 223.231 6.46009 225.476C4.74388 226.861 2.81525 228.797 1.51923 231.11C0.0104885 233.802 -0.838428 237.45 1.22867 241.098C3.46144 245.038 7.37585 246.335 10.6504 246.772C11.2783 246.856 11.9279 246.912 12.5811 246.948C11.9229 248.25 11.4036 249.665 11.1084 251.206C10.807 252.78 10.7097 254.767 11.0187 256.706C11.3171 258.578 12.0816 260.926 13.9778 262.591C16.0341 264.396 18.4643 264.662 20.6002 264.124C22.5502 263.633 24.2832 262.486 25.636 261.383C27.1682 260.135 28.5678 258.642 29.6633 257.36C30.8758 259.212 32.3122 260.689 34.0175 261.64C36.1853 262.849 38.5043 263.049 40.7032 262.467C44.7772 261.389 48.1435 257.745 50.5793 253.918C52.5243 250.861 53.7453 247.675 54.3323 244.427C57.5547 249.498 61.2118 254.768 65.415 259.185C72.4473 266.574 81.537 272.14 93.3226 270.387C103.781 268.831 110.515 260.332 114.943 251.527C119.301 242.859 121.929 232.891 123.721 226.092L123.721 226.092L123.875 225.51C124.368 223.641 123.253 221.726 121.384 221.232C119.515 220.739 117.6 221.855 117.107 223.724L117.006 224.107L117.006 224.107C115.183 231.014 112.713 240.379 108.689 248.382C104.533 256.647 99.2392 262.43 92.2926 263.463C83.6451 264.749 76.6856 260.873 70.4856 254.359C65.0945 248.694 60.6783 241.462 56.5682 234.732L56.5665 234.729C55.8768 233.6 55.1956 232.484 54.5199 231.393C54.1648 230.819 53.6709 230.384 53.1084 230.104C52.3584 228.598 50.6082 227.812 48.9476 228.323C47.1001 228.891 46.0632 230.85 46.6317 232.697C48.5467 238.921 48.0727 244.818 44.6736 250.16C42.4902 253.591 40.3532 255.319 38.9128 255.7C38.3545 255.847 37.9136 255.798 37.4279 255.527C36.8538 255.207 35.9863 254.435 35.0163 252.689C34.3406 251.473 33.0473 250.817 31.7454 250.895C31.5362 250.578 31.2715 250.289 30.9532 250.045C29.4195 248.869 27.2224 249.158 26.0458 250.692C25.1064 251.916 23.2382 254.307 21.2134 255.957C20.1852 256.796 19.3923 257.21 18.8902 257.336C18.6319 257.401 18.6192 257.373 18.6071 257.347C18.6044 257.341 18.6018 257.335 18.5964 257.331C18.4493 257.201 18.1096 256.721 17.9315 255.604C17.7639 254.553 17.8177 253.389 17.9835 252.523C18.6025 249.291 20.9832 246.808 24.2463 243.545C25.6132 242.178 25.6132 239.962 24.2463 238.595C22.8795 237.228 20.6634 237.228 19.2966 238.595C19.1841 238.707 19.0697 238.822 18.9537 238.937L18.9486 238.942C18.6283 239.262 18.2955 239.594 17.9556 239.939C17.5953 239.947 17.2403 239.957 16.8897 239.967C15.0467 240.018 13.3225 240.067 11.5761 239.834C9.20691 239.518 7.96706 238.791 7.31882 237.647C6.86482 236.846 6.84768 235.92 7.62562 234.532C8.30716 233.316 9.43498 232.107 10.6226 231.115C11.5064 231.368 12.4879 231.275 13.3453 230.776C15.0164 229.805 15.5835 227.662 14.6119 225.991C12.8023 222.879 11.6555 220.188 11.4531 217.808C11.2714 215.673 11.825 213.571 14.061 211.335Z" fill="black"/>
</svg>
