<svg width="309" height="239" viewBox="0 0 309 239" fill="none" xmlns="http://www.w3.org/2000/svg">
  <path d="M134.743 75.705c-12.068 16.62-19.951 35.422-16.447 56.298 3.209 19.113 17.695 35.175 34.409 43.737 43.659 22.365 99.272-3.906 118.945-46.35 9.611-20.735 11.424-42.552 1.584-63.707-9.131-19.63-30.342-33.684-51.611-36.533-11.87-1.59-23.675-1.713-35.096 2.261-14.495 5.044-27.496 13.9-38.832 24.137-8.888 8.027-16.959 18.117-22.838 28.548-5.936 10.533-9.243 20.483-11.931 32.113" stroke="#000" stroke-width="7" stroke-linecap="round"/>
  <path d="M196.207 183.158c-17.937-3.614-37.156-3.281-55.422-3.519-29.841-.387-59.645-2.098-89.446-3.604m-1.211.62c3.144 8.427-3.616-18.958-10.353-24.917-3.559-3.147-5.65-3.404-7.332 1.51-1.824 5.328-3.435 10.898-4.407 16.453m-.476 2.725c1.422-3.662-19.398-8.649-22.627-.338-3.98 10.244 10.997 13.282 17.518 13.486m1.479 2.786c1.985 1.072-4.66-.398-6.755.441-5.021 2.012-9.177 3.501-8.607 9.603.93 9.975 13.972 13.49 21.8 9.337m.057 2.841c1.19.849.49 3.447.625 4.689.267 2.481 1.483 6.738 3.442 8.503 6.294 5.673 13.465 2.16 17.005-4.4M108.169 58.14c-5.759 7.11-13.538 8.486-18.238-.375-2.91-5.488 11.246-8.982 13.932-9.996" stroke="#000" stroke-width="7" stroke-linecap="round"/>
  <path d="M103.594 48.783c-10.333-2.741-3.531-17.685 2.839-21.384 4.856-2.819 8.442 5.344 10.327 8.591m2.567-1.49c2.333-5.357 7.791-12.5 14.367-12.203 4.662.212 3.93 5.652 2.359 8.498m-.807 3.043c4.186-2.43 7.194-5.474 12.598-4.74 3.689.5 3.888 4.341 3.528 7.39m-2.091 3.788c5.208.057 10.316.023 15.381 1.367m-15.403 39.126c1.898 6.673 3.958 13.716 4.724 20.615M186.239 77c-.183 6.25.026 10.933 1.443 17.307m-36.158 30.39c-12.758 0 26.431 1.293 37.508 7.622 5.24 2.994-19.257 25.263-20.085 29.402" stroke="#000" stroke-width="7" stroke-linecap="round"/>
</svg>

