<svg width="338" height="249" viewBox="0 0 338 249" fill="none" xmlns="http://www.w3.org/2000/svg">
  <path d="M111.763 125.572c-.731 2.222-7.253-.471-8.754-.965-5.843-1.924-12.852-5.424-15.178-11.613-1.291-3.439-.916-8.922 3.766-8.895 4.295.024 8.808 2.497 12.6 4.255m2.19-1.812c-1.645 3.427-1.994-2.849-2.015-3.963-.055-2.86.713-6.158 2.034-8.67.788-1.497 2.27-3.849 4.282-3.611 1.48.174 2.764 2.18 3.553 3.25 1.779 2.414 3.698 5.235 4.647 8.107 2.577 7.795.534 15.386-3.136 22.412m29.484-35.759c1.294.299-1.117-.91-1.427-1.062-2.662-1.309-4.998-2.697-7.366-4.518-4.55-3.5-10.987-8.722-11.074-15.092-.079-5.811 6.926-3.893 10.16-2.327 3.304 1.6 6.041 3.606 8.749 5.996" stroke="#000" stroke-width="7" stroke-linecap="round"/>
  <path d="M143.223 69.486c-2.458-2.168-.536-7.747.585-10.184.373-.812 1.418-2.663 2.464-2.812 1.688-.241 2.975 1.039 3.742 2.36 1.256 2.164 1.604 4.867 2.083 7.285.585 2.946.795 6.088.789 9.087-.011 5.644-2.344 10.17-5.669 14.637m.68 43.286c5.564 3.741 12.602 5.797 18.168.495 5.389-5.133 3.93-10.441.622-16.138" stroke="#000" stroke-width="7" stroke-linecap="round"/>
  <path d="M46.598 86.615c-12.069 16.62-19.952 35.422-16.447 56.298 3.209 19.113 17.694 35.175 34.408 43.737 43.659 22.365 99.272-3.906 118.945-46.35 9.611-20.735 11.424-42.553 1.584-63.708-9.131-19.629-30.341-33.683-51.611-36.532-11.87-1.59-23.675-1.713-35.096 2.261-14.494 5.044-27.496 13.9-38.832 24.137-8.888 8.027-16.959 18.117-22.837 28.548-5.937 10.533-9.244 20.483-11.931 32.113" stroke="#000" stroke-width="7" stroke-linecap="round"/>
  <path d="M110.44 194.101c17.817-4.171 37.037-4.436 55.286-5.242 29.815-1.316 59.551-3.953 89.291-6.386m1.229.582c-2.88 8.521 3.025-19.062 9.573-25.227 3.459-3.256 5.542-3.578 7.376 1.281 1.988 5.269 3.772 10.786 4.917 16.308m.561 2.709c-1.536-3.616 19.118-9.248 22.604-1.042 4.297 10.116-10.578 13.618-17.089 14.025m-1.392 2.831c-1.951 1.133 4.646-.543 6.766.23 5.081 1.855 9.281 3.214 8.901 9.331-.62 9.999-13.546 13.918-21.499 10.01m.032 2.842c-1.163.885-.384 3.46-.479 4.705-.19 2.489-1.273 6.782-3.176 8.607-6.115 5.866-13.391 2.578-17.134-3.869m-63.161-120.444c17.542-11.334 31.902-27.968 47.49-41.763 11.985-10.607 23.798-21.392 35.888-31.874" stroke="#000" stroke-width="7" stroke-linecap="round"/>
  <path d="M275.683 34.51c-1.266-2.18-2.559-3.336-3.443-5.928-1.296-3.8-2.121-10.58-.513-14.461 2.435-5.875 9.025-8.416 15.003-6.521 4.461 1.414 6.577 5.504 8.028 9.528m1.122 3.29c-3.324-1.094 4.614-6.982 5.818-7.932 5.527-4.361 11.303-7.58 18.376-8.48 11.288-1.436 3.177 13.333-.344 16.755m.285 4.564c3.346-1.942 14.074-5.203 14.316 2.33.24 7.47-7.611 10.884-13.708 12.295m-4.622 4.26c-1.142-1.5-.297 2.246-.207 2.661.754 3.452 2.586 6.555 2.504 10.196-.171 7.592-9.015 10.599-14.754 7.778" stroke="#000" stroke-width="7" stroke-linecap="round"/>
</svg>

